<?xml version="1.0" encoding="UTF-8"?>
<svg id="Layer_1" xmlns="http://www.w3.org/2000/svg" version="1.1" viewBox="0 0 1080 336.34">
  <!-- Generator: Adobe Illustrator 29.6.1, SVG Export Plug-In . SVG Version: 2.1.1 Build 9)  -->
  <defs>
    <style>
      .st0 {
        fill: #141414;
      }

      .st1 {
        fill: #295acf;
      }
    </style>
  </defs>
  <g>
    <path class="st0" d="M442.49,241.28l8.62-10.36c4.42,6.05,9.78,9.31,16.18,9.31,8.38,0,12.69-5.01,12.69-15.02v-42.15h-28.99v-12.69h44.12v54.02c0,19.21-9.55,28.64-27.48,28.64-10.25,0-19.56-4.19-25.15-11.76Z"/>
    <path class="st0" d="M509.78,220.79c0-18.63,13.97-31.78,33.06-31.78s33.18,13.16,33.18,31.78-13.85,31.9-33.18,31.9-33.06-13.27-33.06-31.9ZM561.36,220.79c0-11.88-7.92-19.44-18.51-19.44s-18.4,7.57-18.4,19.44,7.92,19.44,18.4,19.44,18.51-7.57,18.51-19.44Z"/>
    <path class="st0" d="M656.01,220.79c0,19.33-13.39,31.9-31.55,31.9-8.5,0-15.72-2.91-20.61-8.85v8.03h-13.85v-86.39h14.55v31.78c5.01-5.59,11.99-8.27,19.91-8.27,18.16,0,31.55,12.46,31.55,31.78ZM641.22,220.79c0-11.88-7.92-19.44-18.39-19.44s-18.51,7.57-18.51,19.44,8.03,19.44,18.51,19.44,18.39-7.57,18.39-19.44Z"/>
    <path class="st0" d="M664.39,243.26l5.24-11.76c6.52,5.24,16.88,8.96,26.89,8.96,12.69,0,18.05-4.54,18.05-10.59,0-17.58-48.43-6.05-48.43-36.33,0-13.16,10.48-24.33,32.83-24.33,9.78,0,20.02,2.56,27.13,7.22l-4.77,11.76c-7.33-4.31-15.37-6.4-22.47-6.4-12.57,0-17.7,4.89-17.7,11.06,0,17.35,48.32,6.05,48.32,35.98,0,13.04-10.59,24.22-32.95,24.22-12.69,0-25.38-3.96-32.13-9.78Z"/>
    <path class="st0" d="M780.46,248.5c-3.49,2.79-8.73,4.19-13.97,4.19-13.62,0-21.42-7.22-21.42-20.96v-29.92h-10.25v-11.64h10.25v-14.2h14.55v14.2h16.65v11.64h-16.65v29.57c0,6.05,3.03,9.31,8.62,9.31,3.03,0,5.94-.82,8.15-2.56l4.08,10.36Z"/>
    <path class="st0" d="M844.49,215.43v36.44h-13.74v-7.57c-3.49,5.36-10.25,8.38-19.56,8.38-14.2,0-23.17-7.8-23.17-18.63s6.99-18.51,25.85-18.51h16.07v-.93c0-8.5-5.12-13.5-15.48-13.5-6.99,0-14.2,2.33-18.86,6.17l-5.71-10.59c6.64-5.12,16.3-7.68,26.31-7.68,17.93,0,28.29,8.5,28.29,26.43ZM829.93,232.43v-7.22h-15.02c-9.9,0-12.57,3.73-12.57,8.27,0,5.24,4.42,8.62,11.88,8.62s13.27-3.26,15.72-9.66Z"/>
    <path class="st0" d="M863.11,165.49h14.55v86.39h-14.55v-86.39Z"/>
    <path class="st0" d="M922.14,225.21l-10.83,10.25v16.42h-14.55v-86.39h14.55v52.16l30.15-27.94h17.46l-25.96,26.08,28.41,36.09h-17.7l-21.54-26.66Z"/>
    <path class="st0" d="M1026.45,225.45h-48.78c1.75,9.08,9.31,14.9,20.14,14.9,6.99,0,12.46-2.21,16.88-6.75l7.8,8.96c-5.59,6.64-14.32,10.13-25.03,10.13-20.84,0-34.35-13.39-34.35-31.9s13.62-31.78,32.13-31.78,31.43,12.69,31.43,32.13c0,1.16-.12,2.91-.23,4.31ZM977.55,215.78h35.28c-1.16-8.96-8.03-15.13-17.58-15.13s-16.3,6.05-17.7,15.13Z"/>
    <path class="st0" d="M1076.63,189v13.85c-1.28-.23-2.33-.35-3.38-.35-11.06,0-18.05,6.52-18.05,19.21v30.15h-14.55v-62.17h13.85v9.08c4.19-6.52,11.76-9.78,22.12-9.78Z"/>
  </g>
  <g>
    <path class="st1" d="M349.12,82.69c-.04-.1-.16-.12-.23-.05-3.88,4.54-85.89,100.76-91.8,129.17-6.06,29.1,2.21,54.08,61.38,99.22l19.54,16.57c.07.06.18.03.21-.06l6.93-18.54s.03-.05.05-.06l16.21-10.86s2.59-1.96-1.22-3.81c0,0,0,0-.01,0-.32-.24-42.53-32.04-49.77-40.04-7.27-8.03-30-19.39-9-50.96,14.12-21.22,28.42-40.8,36.29-51.36,8.67-11.63,14.21-25.39,15.43-39.84.77-9.02,0-19.17-4.01-29.38Z"/>
    <path class="st1" d="M241.52,277.35c-7.01-7.21-36.39-48.05-3.05-97.83,26.65-39.79,80.26-106.74,80.27-106.75,4.28-5.3,7.78-10.24,10.89-14.02,2.85-3.45,7.86-12.28,8.03-12.68,4.78-11.02,6.35-25.08-.56-46.07l-22.27,27.63-.31.38-.39.46c-8.5,10.13-61.52,73.75-101.64,133.65-14.77,22.05-20.18,42.89-20.77,60.97-9.04-9.32-17.54-17.66-23.85-22.96-11.24-9.47-34.61-24.55-55.61-37.5,11.6-2.65,43.48-7.64,67.95,9.98l18.27-25.37c-35.73-25.72-78.69-18.73-95.51-14.53-15.86,3.96-39.04,2.99-39.26,2.98l-63.72-2.93,55.16,32.06c19.98,11.6,75.58,44.89,92.6,59.22,18.66,15.7,61.71,64.24,70.22,73.87.62.86,1.4,1.63,1.89,2.13l7.65,9.28,23.27,26.87c.41.42,1.47-.12,1.86-.95l5.43-11.62c.98-2.1,2.71-3.78,4.84-4.69l11.73-5.05c.84-.36,1.41-1.39,1.01-1.81,0,0-18.37-18.51-34.13-34.72Z"/>
  </g>
</svg>