<?xml version="1.0" encoding="UTF-8"?>
<svg id="Layer_1" xmlns="http://www.w3.org/2000/svg" version="1.1" viewBox="0 0 633.85 567.6">
  <!-- Generator: Adobe Illustrator 29.6.1, SVG Export Plug-In . SVG Version: 2.1.1 Build 9)  -->
  <defs>
    <style>
      .st0 {
        fill: #fff;
      }
    </style>
  </defs>
  <g>
    <path class="st0" d="M0,526.39l8.57-10.3c4.4,6.02,9.72,9.26,16.09,9.26,8.33,0,12.62-4.98,12.62-14.93v-41.9H8.45v-12.62h43.87v53.71c0,19.1-9.49,28.47-27.32,28.47-10.19,0-19.45-4.17-25-11.69Z"/>
    <path class="st0" d="M66.9,506.02c0-18.52,13.89-31.6,32.87-31.6s32.99,13.08,32.99,31.6-13.77,31.72-32.99,31.72-32.87-13.2-32.87-31.72ZM118.18,506.02c0-11.81-7.87-19.33-18.4-19.33s-18.29,7.52-18.29,19.33,7.87,19.33,18.29,19.33,18.4-7.52,18.4-19.33Z"/>
    <path class="st0" d="M212.29,506.02c0,19.21-13.31,31.72-31.37,31.72-8.45,0-15.63-2.89-20.49-8.8v7.99h-13.77v-85.89h14.47v31.6c4.98-5.56,11.92-8.22,19.79-8.22,18.06,0,31.37,12.39,31.37,31.6ZM197.59,506.02c0-11.81-7.87-19.33-18.29-19.33s-18.4,7.52-18.4,19.33,7.99,19.33,18.4,19.33,18.29-7.52,18.29-19.33Z"/>
    <path class="st0" d="M220.62,528.36l5.21-11.69c6.48,5.21,16.78,8.91,26.74,8.91,12.62,0,17.94-4.51,17.94-10.53,0-17.48-48.15-6.02-48.15-36.12,0-13.08,10.42-24.19,32.64-24.19,9.72,0,19.91,2.55,26.97,7.18l-4.75,11.69c-7.29-4.28-15.28-6.37-22.34-6.37-12.5,0-17.59,4.86-17.59,11,0,17.25,48.04,6.02,48.04,35.77,0,12.96-10.53,24.08-32.76,24.08-12.62,0-25.23-3.94-31.95-9.72Z"/>
    <path class="st0" d="M336.02,533.57c-3.47,2.78-8.68,4.17-13.89,4.17-13.54,0-21.3-7.18-21.3-20.84v-29.75h-10.19v-11.58h10.19v-14.12h14.47v14.12h16.55v11.58h-16.55v29.4c0,6.02,3.01,9.26,8.57,9.26,3.01,0,5.9-.81,8.1-2.55l4.05,10.3Z"/>
    <path class="st0" d="M399.69,500.7v36.23h-13.66v-7.52c-3.47,5.33-10.19,8.33-19.45,8.33-14.12,0-23.04-7.76-23.04-18.52s6.95-18.41,25.7-18.41h15.97v-.93c0-8.45-5.09-13.43-15.4-13.43-6.95,0-14.12,2.32-18.75,6.14l-5.67-10.53c6.6-5.09,16.21-7.64,26.16-7.64,17.83,0,28.13,8.45,28.13,26.28ZM385.22,517.6v-7.18h-14.93c-9.84,0-12.5,3.7-12.5,8.22,0,5.21,4.4,8.57,11.81,8.57s13.2-3.24,15.63-9.61Z"/>
    <path class="st0" d="M418.2,451.04h14.47v85.89h-14.47v-85.89Z"/>
    <path class="st0" d="M476.89,510.42l-10.76,10.19v16.32h-14.47v-85.89h14.47v51.86l29.98-27.78h17.36l-25.81,25.93,28.24,35.88h-17.59l-21.42-26.51Z"/>
    <path class="st0" d="M580.6,510.65h-48.5c1.74,9.03,9.26,14.82,20.03,14.82,6.94,0,12.38-2.2,16.78-6.71l7.75,8.91c-5.56,6.6-14.24,10.07-24.89,10.07-20.72,0-34.15-13.31-34.15-31.72s13.54-31.6,31.95-31.6,31.25,12.62,31.25,31.95c0,1.16-.12,2.89-.23,4.28ZM531.99,501.04h35.07c-1.16-8.91-7.99-15.05-17.48-15.05s-16.21,6.02-17.59,15.05Z"/>
    <path class="st0" d="M630.49,474.42v13.77c-1.27-.23-2.32-.35-3.36-.35-11,0-17.94,6.48-17.94,19.1v29.98h-14.47v-61.81h13.77v9.03c4.17-6.48,11.69-9.72,21.99-9.72Z"/>
  </g>
  <g>
    <path class="st0" d="M430.82,82.21c-.04-.09-.16-.12-.23-.05-3.86,4.52-85.39,100.18-91.28,128.43-6.03,28.93,2.2,53.77,61.03,98.65l19.42,16.48c.07.06.18.03.21-.05l6.89-18.43s.03-.05.05-.06l16.12-10.79s2.58-1.95-1.21-3.79c0,0,0,0-.01,0-.32-.24-42.29-31.86-49.49-39.81-7.23-7.99-29.83-19.28-8.95-50.67,14.04-21.1,28.26-40.56,36.08-51.06,8.62-11.57,14.13-25.24,15.35-39.61.76-8.96,0-19.06-3.99-29.21Z"/>
    <path class="st0" d="M323.84,275.76c-6.97-7.17-36.18-47.78-3.03-97.27,26.49-39.56,79.8-106.12,79.81-106.14,4.26-5.27,7.73-10.18,10.83-13.94,2.83-3.43,7.82-12.21,7.99-12.6,4.75-10.95,6.32-24.94-.56-45.8l-22.14,27.48-.31.37-.39.46c-8.45,10.07-61.17,73.33-101.05,132.88-14.68,21.92-20.07,42.64-20.65,60.62-8.99-9.26-17.44-17.56-23.71-22.83-11.18-9.41-34.41-24.41-55.29-37.29,11.54-2.64,43.23-7.6,67.56,9.92l18.16-25.23c-35.52-25.57-78.24-18.62-94.96-14.45-15.76,3.94-38.81,2.97-39.04,2.96l-63.36-2.91,54.84,31.88c19.87,11.54,75.14,44.63,92.06,58.88,18.55,15.61,61.36,63.87,69.82,73.44.62.86,1.39,1.62,1.88,2.12l7.61,9.23,23.13,26.72c.4.42,1.47-.12,1.85-.94l5.4-11.55c.98-2.09,2.69-3.75,4.81-4.67l11.67-5.02c.83-.36,1.4-1.39,1-1.8,0,0-18.26-18.4-33.93-34.52Z"/>
  </g>
</svg>